<svg width="32" height="32" viewBox="0 0 32 32" fill="none" xmlns="http://www.w3.org/2000/svg">
  <!-- Background circle with wood brown color -->
  <circle cx="16" cy="16" r="16" fill="#8B4513"/>
  
  <!-- Log stack icon -->
  <!-- Bottom log -->
  <ellipse cx="16" cy="26" rx="10" ry="2.5" fill="#D2B48C"/>
  <rect x="6" y="23.5" width="20" height="5" rx="2.5" fill="#CD853F"/>
  
  <!-- Middle log -->
  <ellipse cx="12" cy="20" rx="8" ry="2" fill="#D2B48C"/>
  <rect x="4" y="18" width="16" height="4" rx="2" fill="#CD853F"/>
  
  <!-- Top log -->
  <ellipse cx="20" cy="15" rx="8" ry="2" fill="#D2B48C"/>
  <rect x="12" y="13" width="16" height="4" rx="2" fill="#CD853F"/>
  
  <!-- Fire/flame on top -->
  <path d="M16 12 C16 12, 14 8, 16 6 C16 6, 18 8, 16 12" fill="#FF6B35"/>
  <path d="M18 11 C18 11, 17 8, 18 7 C18 7, 19 8, 18 11" fill="#FF8C42"/>
  <path d="M14 11 C14 11, 13 8, 14 7 C14 7, 15 8, 14 11" fill="#FF8C42"/>
</svg>
