<!-- Hillside Logs Fuel Favicon - Optimized for small sizes -->
<svg width="32" height="32" viewBox="0 0 32 32" fill="none" xmlns="http://www.w3.org/2000/svg">
  <!-- Background with wood brown -->
  <rect width="32" height="32" fill="#8B4513"/>
  
  <!-- Log stack - simplified for small size -->
  <rect x="4" y="22" width="24" height="6" rx="3" fill="#CD853F"/>
  <rect x="6" y="16" width="20" height="5" rx="2.5" fill="#DEB887"/>
  <rect x="8" y="10" width="16" height="4" rx="2" fill="#CD853F"/>
  
  <!-- Flame - bold and visible -->
  <path d="M16 10 C16 10, 14 6, 16 4 C16 4, 18 6, 16 10" fill="#FF6B35"/>
  <path d="M18 9 C18 9, 17 6, 18 5 C18 5, 19 6, 18 9" fill="#FF8C42"/>
  <path d="M14 9 C14 9, 13 6, 14 5 C14 5, 15 6, 14 9" fill="#FF8C42"/>
  
  <!-- Inner flame highlight for visibility -->
  <path d="M16 9 C16 9, 15 7, 16 6 C16 6, 17 7, 16 9" fill="#FFD700"/>
</svg>
